<?xml version="1.0" encoding="UTF-8" standalone="yes"?><svg xmlns="http://www.w3.org/2000/svg" version="1.2" width="1024" height="1024" baseProfile="tiny-ps"><title>dglib</title><path d="M0 0 C0.743638 0.00552887 1.487276 0.01105774 2.25344849 0.01675415 C9.96247842 0.15988235 17.41368974 1.23800762 24.9921875 2.6484375 C26.06586075 2.8428392 26.06586075 2.8428392 27.16122437 3.04116821 C67.69345808 10.45058466 107.21074631 25.09476688 143.7265625 44.0390625 C146.60977369 45.52777939 149.50441423 46.99335224 152.3984375 48.4609375 C171.80894428 58.35232659 190.35796017 68.89010682 207.97558594 81.72167969 C210.21162186 83.34186258 212.46324801 84.9382958 214.71875 86.53125 C222.83848841 92.28851133 230.67706966 98.20843391 238.1875 104.7421875 C240.88591689 107.0736197 243.63901803 109.3041514 246.4296875 111.5234375 C292.9823497 149.55709668 292.9823497 149.55709668 301.1171875 170.2734375 C301.38211685 170.9378645 301.6470462 171.6022915 301.92000371 172.28685266 C305.27378458 182.40082498 304.51449409 193.03952884 304.46208191 203.55851746 C304.46179197 205.84587239 304.46284416 208.13322782 304.46511918 210.42058164 C304.46762898 216.69277794 304.45160825 222.9648108 304.43265498 229.23697388 C304.4173156 235.31101815 304.41619521 241.38504904 304.4150125 247.45910972 C304.41243245 259.12205448 304.39942455 270.78495852 304.37903662 282.44788484 C304.34671496 300.96659845 304.34121769 319.48524487 304.34421162 338.00398299 C304.34526276 345.13579234 304.34551065 352.26760179 304.34583759 359.3994112 C304.34590016 360.5878504 304.34590016 360.5878504 304.34596399 361.80029846 C304.34684739 380.64885047 304.34061678 399.49739775 304.33129883 418.34594727 C304.330699 419.58259797 304.330699 419.58259797 304.33008704 420.84423151 C304.32065739 440.07585265 304.30568743 459.30745687 304.2791748 478.5390625 C304.27803601 479.36605909 304.27689722 480.19305569 304.27572392 481.04511278 C304.26650565 487.71130676 304.25712432 494.3775005 304.24769031 501.04369417 C304.20892451 528.5496024 304.19711561 556.05541429 304.21587971 583.56134548 C304.21849998 587.44846735 304.22076986 591.33558934 304.22280312 595.22271156 C304.22340951 596.37014893 304.22340951 596.37014893 304.22402816 597.54076685 C304.22964872 609.83227729 304.2062653 622.12356873 304.17137219 634.41502396 C304.13677801 646.77552239 304.13078426 659.13576706 304.15388586 671.49629476 C304.16556246 678.18807028 304.16338789 684.87909648 304.12654305 691.57083702 C304.09303396 697.7033087 304.0967139 703.83461993 304.12929038 709.96708623 C304.13457109 712.17901672 304.12646338 714.39103084 304.10320356 716.60284533 C303.96902862 730.21673225 304.76766066 743.73726417 314.87507886 754.07062501 C315.48992264 754.66601719 315.48992264 754.66601719 316.1171875 755.2734375 C316.1171875 755.9334375 316.1171875 756.5934375 316.1171875 757.2734375 C316.7771875 757.2734375 317.4371875 757.2734375 318.1171875 757.2734375 C319.22614025 744.51579988 319.25934013 731.80915666 319.24848938 719.01139832 C319.25019407 716.66681725 319.25234491 714.32223648 319.25490063 711.97765619 C319.26007614 706.23634732 319.26073877 700.49505055 319.25950777 694.75373978 C319.25831673 687.86951604 319.26299169 680.98529946 319.26801586 674.10107788 C319.27664392 662.17384661 319.28202092 650.24661679 319.28521737 638.31938292 C319.29037115 619.39159819 319.30585359 600.46383217 319.32479385 581.53605671 C319.32881464 577.50280167 319.33273574 573.46954653 319.33666021 569.4362914 C319.33744286 568.63241794 319.33822552 567.82854448 319.33903189 567.00031122 C319.34061743 565.37144622 319.34220226 563.74258122 319.34378638 562.11371622 C319.34537765 560.47892659 319.3469719 558.84413696 319.34856911 557.20934733 C319.36737748 537.95377522 319.38447585 518.69820187 319.40014648 499.44262695 C319.40117986 498.17958957 319.40117986 498.17958957 319.40223412 496.89103628 C319.42451729 469.56065457 319.43634142 442.23027835 319.44381304 414.89988901 C319.45157686 386.77885225 319.47262699 358.65785278 319.50935565 330.53683834 C319.51452909 326.56633573 319.51953645 322.59583293 319.52443504 318.62532997 C319.52588548 317.45326809 319.52588548 317.45326809 319.52736522 316.25752819 C319.54250342 303.68618384 319.5434014 291.11487685 319.53877791 278.54352589 C319.53439517 265.91481142 319.54429877 253.28617364 319.56886498 240.65748169 C319.58176119 233.81676841 319.58821286 226.97619651 319.57644844 220.13547707 C319.56629827 213.87422516 319.57449176 207.61327595 319.5973114 201.35205988 C319.60231524 199.0865357 319.60055972 196.82098445 319.59137873 194.55547335 C319.57987837 191.47563984 319.59299715 188.39683885 319.61217213 185.31706524 C319.60298257 184.43795922 319.59379301 183.55885321 319.58432499 182.65310761 C319.74166623 169.78617767 326.4996323 160.83197425 335.2421875 152.0234375 C336.53178215 150.77129996 337.82355972 149.52140783 339.1171875 148.2734375 C342.6564883 144.79140694 346.03628107 141.20496566 349.3671875 137.5234375 C365.92137535 119.36335075 384.84150615 103.98107138 404.89404297 89.84375 C407.0811137 88.29891814 409.2583647 86.74113636 411.43359375 85.1796875 C470.21776125 43.10714434 557.72630365 -4.95167326 633.1171875 0.2734375 C641.0218498 1.85436996 645.81189736 5.19145992 650.3671875 11.8359375 C652.98970441 15.84406257 654.24028165 18.89078339 654.2524007 23.6986022 C654.25710631 24.61131211 654.26181192 25.52402202 654.26666012 26.4643898 C654.26678085 27.47051945 654.26690157 28.47664909 654.26702595 29.51326752 C654.27106655 30.5838624 654.27510716 31.65445729 654.2792702 32.75749445 C654.29170185 36.38142282 654.29697714 40.00532719 654.30232239 43.62927246 C654.3097466 46.23914665 654.31759663 48.84901966 654.32583827 51.45889139 C654.34535937 57.90298977 654.3594801 64.3470899 654.37196469 70.79120531 C654.38715398 78.5069835 654.40805219 86.22274356 654.42901242 93.93850785 C654.47936536 112.59061495 654.51935963 131.24274006 654.55769682 149.8948751 C654.57586463 158.7170211 654.59503597 167.53916483 654.61423802 176.36130863 C654.67985154 206.5541649 654.74255479 236.74702597 654.797719 266.93990326 C654.80119132 268.83595678 654.80466479 270.73201031 654.80813942 272.62806383 C654.8098624 273.56834769 654.81158537 274.50863156 654.81336055 275.47740887 C654.82209388 280.24144969 654.83084176 285.00549048 654.83959961 289.76953125 C654.8413346 290.71497451 654.84306959 291.66041777 654.84485716 292.63451082 C654.90121628 323.28776111 654.97315744 353.94094788 655.05419081 384.59414219 C655.13977839 416.99393261 655.21072101 449.39372332 655.26517886 481.79358149 C655.27121305 485.35012478 655.27730961 488.90666796 655.28345299 492.46321106 C655.28495933 493.33894731 655.28646567 494.21468356 655.28801766 495.11695727 C655.31261676 509.21371687 655.35060903 523.31040999 655.39343418 537.40712465 C655.43615231 551.5764436 655.46404428 565.74573153 655.476876 579.91510957 C655.48493345 588.33346627 655.50415049 596.75162416 655.5394028 605.16991184 C655.56448739 611.45595187 655.5685771 617.74184118 655.56450256 624.02792627 C655.56612299 626.57109831 655.57454937 629.11427695 655.59044418 631.65739983 C655.61105032 635.11417388 655.60686106 638.5700779 655.59655476 642.02687836 C655.60838131 643.01427867 655.62020786 644.00167899 655.63239279 645.01900053 C655.55677533 654.04760502 653.29993453 663.04633861 646.9609375 669.7734375 C641.05889528 674.57509896 634.09707088 677.36830845 626.515625 677.4140625 C569.66518093 678.36100336 512.05303977 690.04678208 460.1171875 713.2734375 C459.18166046 713.68943207 459.18166046 713.68943207 458.22723389 714.11383057 C436.83575164 723.63181513 416.13060673 734.11951715 396.1171875 746.2734375 C395.19292969 746.83160156 394.26867187 747.38976562 393.31640625 747.96484375 C381.09849951 755.54640641 368.92084096 763.70211646 358.1171875 773.2109375 C350.02615917 780.31012929 341.48429857 785.33608936 331.1171875 788.2734375 C332.4371875 790.9134375 333.7571875 793.5534375 335.1171875 796.2734375 C340.84709227 795.7391377 345.19201193 793.4478629 350.2421875 790.8984375 C384.29914703 774.28308803 421.15857778 762.45016487 458.1171875 754.2734375 C459.20563965 754.03044922 460.2940918 753.78746094 461.41552734 753.53710938 C503.93974908 744.28497745 548.03994666 742.12265861 591.4296875 742.0859375 C592.49148224 742.08475922 593.55327698 742.08358093 594.64724731 742.08236694 C601.80527413 742.08326962 608.96021737 742.15322573 616.1171875 742.2734375 C617.16195251 742.28775818 618.20671753 742.30207886 619.28314209 742.3168335 C622.38894607 742.36751735 625.49271664 742.44684499 628.59765625 742.53515625 C629.52403397 742.54851517 630.45041168 742.56187408 631.40486145 742.57563782 C638.120309 742.81461038 644.48798748 744.1366721 649.70866394 748.64897156 C654.30524828 753.76955182 655.60297105 759.26879461 655.43359375 765.96484375 C654.71686216 771.19432977 652.40132558 775.05350633 648.6171875 778.6484375 C643.79455479 781.78314876 640.92803075 782.52560895 635.0546875 782.4609375 C634.32499756 782.45449219 633.59530762 782.44804688 632.84350586 782.44140625 C625.95129101 782.35130274 619.06635003 782.05067676 612.1796875 781.7734375 C598.81707813 781.2403522 585.48883805 781.08436783 572.1171875 781.2734375 C571.05628906 781.28600586 569.99539063 781.29857422 568.90234375 781.31152344 C491.30993028 782.46365321 409.79453359 801.79748959 341.80517578 839.41650391 C335.54563618 842.59425687 327.1195054 842.29592748 320.44140625 840.58984375 C318.17752096 839.64753571 316.1852335 838.58871475 314.1171875 837.2734375 C313.18132812 836.68949219 313.18132812 836.68949219 312.2265625 836.09375 C305.89161328 831.43893949 303.4074648 824.33308072 300.25585938 817.37060547 C295.48736579 806.95046857 290.0087722 798.58735057 282.1171875 790.2734375 C281.65908691 789.78504395 281.20098633 789.29665039 280.72900391 788.79345703 C274.82459139 782.54481285 268.55827983 776.88671522 261.79296875 771.58984375 C259.87051677 770.07966585 257.9633156 768.55104558 256.0546875 767.0234375 C245.77206271 758.85001086 235.19611553 751.32723092 224.1171875 744.2734375 C223.2209668 743.69698486 223.2209668 743.69698486 222.30664062 743.10888672 C209.45140135 734.89581718 195.72183525 728.13881512 182.1171875 721.2734375 C181.29395996 720.85642578 180.47073242 720.43941406 179.62255859 720.00976562 C125.84698275 692.9955744 60.52213536 678.38339623 0.62646484 677.73925781 C-8.33816123 677.56110431 -15.70739802 676.16086616 -22.38671875 669.8671875 C-29.87371173 661.89148741 -31.33555673 652.89631196 -31.26033592 642.35220337 C-31.26469624 641.28083972 -31.26905657 640.20947607 -31.27354902 639.10564685 C-31.28449855 635.51512635 -31.27408427 631.92499037 -31.26376343 628.33447266 C-31.26722009 625.73449316 -31.27198471 623.13451514 -31.27794516 620.53454018 C-31.28876844 614.88140042 -31.28845881 609.22834664 -31.28080368 603.57520294 C-31.26945116 595.16876096 -31.27526007 586.76239144 -31.2844286 578.35594994 C-31.30022453 563.34164257 -31.29885717 548.3273735 -31.29019186 533.31306249 C-31.28264593 520.17381246 -31.28067475 507.03457646 -31.2842598 493.89532471 C-31.28448895 493.02385102 -31.28471811 492.15237732 -31.28495421 491.25449534 C-31.28588822 487.71692152 -31.28684342 484.17934772 -31.2878335 480.64177392 C-31.29701101 447.45494615 -31.28868929 414.26814277 -31.27254281 381.08131877 C-31.25830594 351.59521507 -31.25957982 322.10915023 -31.27392578 292.62304688 C-31.28998881 259.49701275 -31.29636015 226.37100017 -31.28708899 193.24496269 C-31.28612683 189.71382523 -31.28518831 186.18268776 -31.2842598 182.65155029 C-31.28402256 181.7820908 -31.28378533 180.91263131 -31.28354091 180.01682456 C-31.28012814 166.88566114 -31.28411999 153.75451331 -31.29169846 140.62335205 C-31.30027232 125.69300564 -31.29814008 110.76270353 -31.28185622 95.83236265 C-31.27304283 87.47582115 -31.27247885 79.11937555 -31.28379475 70.76283652 C-31.29130838 64.52656729 -31.28316766 58.29041138 -31.26887102 52.05415606 C-31.26551346 49.52871119 -31.26723909 47.0032535 -31.27449839 44.47781682 C-31.2835977 41.0499178 -31.27428695 37.62254314 -31.26033592 34.19467163 C-31.26735942 33.21014975 -31.27438292 32.22562788 -31.28161925 31.211272 C-31.20592305 21.92912 -29.2110463 14.80904614 -22.77734375 7.99609375 C-16.25944826 2.06951249 -8.68606613 -0.09770308 0 0 Z " fill="#039344" transform="translate(199.8828125,69.7265625)"></path><path d="M0 0 C0.66 0.33 1.32 0.66 2 1 C-0.79580601 5.43768266 -3.81720308 9.20954617 -7.5 12.9375 C-8.20962891 13.69643555 -8.20962891 13.69643555 -8.93359375 14.47070312 C-10.34375 15.90234375 -10.34375 15.90234375 -13 18 C-14.32 17.67 -15.64 17.34 -17 17 C-11.39 11.39 -5.78 5.78 0 0 Z " fill="#04823C" transform="translate(564,192)"></path><path d="M0 0 C-3.35911113 2.23940742 -6.8640549 3.95956038 -10.5 5.6875 C-11.17675781 6.02072266 -11.85351562 6.35394531 -12.55078125 6.69726562 C-17.65066964 9.11644345 -17.65066964 9.11644345 -21 8 C-18.16154476 5.16154476 -14.68697798 3.90318998 -11.0625 2.3125 C-10.33353516 1.97927734 -9.60457031 1.64605469 -8.85351562 1.30273438 C-3.35902661 -1.11967554 -3.35902661 -1.11967554 0 0 Z " fill="#078338" transform="translate(575,892)"></path><path d="M0 0 C1.17539996 0.92652701 2.34010577 1.86663387 3.5 2.8125 C4.1496875 3.33457031 4.799375 3.85664062 5.46875 4.39453125 C7 6 7 6 7 9 C5.82460004 8.07347299 4.65989423 7.13336613 3.5 6.1875 C2.52546875 5.40439453 2.52546875 5.40439453 1.53125 4.60546875 C0 3 0 3 0 0 Z " fill="#05853A" transform="translate(476,851)"></path><path d="M0 0 C0.66 0 1.32 0 2 0 C0.73058503 3.91402949 -0.51167694 5.79072873 -4 8 C-3.40312566 4.65750371 -2.26396123 2.53563658 0 0 Z " fill="#067A34" transform="translate(851,841)"></path><path d="M0 0 C0.33 0.99 0.66 1.98 1 3 C-1.97 5.475 -1.97 5.475 -5 8 C-5.66 7.67 -6.32 7.34 -7 7 C-4.69 4.69 -2.38 2.38 0 0 Z " fill="#076A33" transform="translate(560,196)"></path><path d="M0 0 C2 1 2 1 2 1 Z " fill="#23201D" transform="translate(450,843)"></path><path d="M0 0 C2 1 2 1 2 1 Z " fill="#1F2220" transform="translate(627,129)"></path><path d="" fill="#272621" transform="translate(0,0)"></path><path d="" fill="#292922" transform="translate(0,0)"></path><path d="" fill="#22241F" transform="translate(0,0)"></path><path d="" fill="#1E211E" transform="translate(0,0)"></path><path d="" fill="#231F1C" transform="translate(0,0)"></path><path d="" fill="#232422" transform="translate(0,0)"></path><path d="" fill="#202120" transform="translate(0,0)"></path><path d="" fill="#1F221B" transform="translate(0,0)"></path></svg>